<svg width="128" height="128" viewBox="0 0 128 128" fill="none" xmlns="http://www.w3.org/2000/svg">
<rect width="121.621" height="8.00044" rx="4.00022" transform="matrix(0.00487596 0.999988 -0.999995 0.00320375 18.0002 3)" fill="#D9D9D9"/>
<rect width="9.58087" height="91.6891" rx="4.79043" transform="matrix(0.00487596 0.999988 -0.999995 0.00320375 116.749 10.2966)" fill="#FF0000"/>
<rect width="9.58087" height="45.2691" rx="4.79043" transform="matrix(0.00487596 0.999988 -0.999995 0.00320375 70.3296 25.5673)" fill="#F15A22"/>
<rect width="9.58087" height="23.7244" rx="4.79043" transform="matrix(0.00487596 0.999988 -0.999995 0.00320375 105.263 25.5673)" fill="#F15A22"/>
<rect width="9.58087" height="80.4034" rx="4.79043" transform="matrix(0.00487596 0.999988 -0.999995 0.00320375 105.463 59.2728)" fill="#B392F0"/>
<rect width="9.58087" height="53.0217" rx="4.79043" transform="matrix(0.00487596 0.999988 -0.999995 0.00320375 78.082 76.4854)" fill="#D9D9D9"/>
<rect width="9.58087" height="33.8384" rx="4.79043" transform="matrix(0.00487596 0.999988 -0.999995 0.00320375 117.26 76.4592)" fill="#F15A22"/>
<rect width="9.58087" height="53.0121" rx="4.79043" transform="matrix(0.00487596 0.999988 -0.999995 0.00320375 78.0735 93.2798)" fill="#F97583"/>
<rect width="9.58087" height="66.9117" rx="4.79043" transform="matrix(0.00487596 0.999988 -0.999995 0.00320375 91.9707 106.475)" fill="#F15A22"/>
<rect width="9.58087" height="20.7123" rx="4.79043" transform="matrix(0.00487596 0.999988 -0.999995 0.00320375 117.953 106.52)" fill="#D9D9D9"/>
<rect width="9.58087" height="92.5997" rx="4.79043" transform="matrix(0.00487596 0.999988 -0.999995 0.00320375 117.66 42.5107)" fill="#95BD91"/>
</svg>
