<svg width="116" height="116" viewBox="0 0 116 116" fill="none" xmlns="http://www.w3.org/2000/svg">
<path d="M58 116C90.0325 116 116 90.0325 116 58C116 25.9675 90.0325 0 58 0C25.9675 0 0 25.9675 0 58C0 90.0325 25.9675 116 58 116Z" fill="black"/>
<rect x="46" y="47" width="27" height="26" rx="5" fill="#B392F0"/>
<rect x="42" y="27" width="52" height="15" rx="5" fill="#F15A22"/>
<rect x="11" y="53" width="90" height="15" rx="5" fill="#F97583"/>
<rect x="65.9999" y="14" width="90" height="15" rx="5" transform="rotate(89.7735 65.9999 14)" fill="white"/>
<g filter="url(#filter0_d_16_157)">
<rect x="79" y="80" width="33" height="15" rx="5" transform="rotate(-90 79 80)" fill="#95BD91"/>
</g>
<rect x="19" y="45" width="22" height="30" rx="5" fill="white"/>
<rect x="42" y="78" width="35" height="15" rx="5" fill="#FF0000"/>
<rect x="47" y="18" width="8" height="3" rx="1.5" fill="#95BD91"/>
<rect x="62" y="98" width="8" height="3" rx="1.5" fill="#B392F0"/>
<defs>
<filter id="filter0_d_16_157" x="75" y="47" width="23" height="41" filterUnits="userSpaceOnUse" color-interpolation-filters="sRGB">
<feFlood flood-opacity="0" result="BackgroundImageFix"/>
<feColorMatrix in="SourceAlpha" type="matrix" values="0 0 0 0 0 0 0 0 0 0 0 0 0 0 0 0 0 0 127 0" result="hardAlpha"/>
<feOffset dy="4"/>
<feGaussianBlur stdDeviation="2"/>
<feComposite in2="hardAlpha" operator="out"/>
<feColorMatrix type="matrix" values="0 0 0 0 0 0 0 0 0 0 0 0 0 0 0 0 0 0 0.25 0"/>
<feBlend mode="normal" in2="BackgroundImageFix" result="effect1_dropShadow_16_157"/>
<feBlend mode="normal" in="SourceGraphic" in2="effect1_dropShadow_16_157" result="shape"/>
</filter>
</defs>
</svg>
